<svg xmlns="http://www.w3.org/2000/svg" viewBox="0 0 107.17 93.08"><defs><style>.cls-1{stroke:#000;stroke-miterlimit:10;}.cls-2{fill:#fefefe;}.cls-3{fill:#fcfcfc;}.cls-4{fill:#f8f8f8;}.cls-5{fill:#03f;}</style></defs><title>fall</title><g id="Layer_2" data-name="Layer 2"><g id="person"><path class="cls-1" d="M34.93,16.12a3.31,3.31,0,0,0-2.51,1.28,4.67,4.67,0,0,0-1.11,3.72c.07.85.31,1.57-.47,2.11s-2.52,5,2.59,8.54a21.35,21.35,0,0,0,14.79,4.05c4.25-.58,6.08-1.41,7-4.81s5.47-10.45,5.47-10.45,5.08-3.24,6.7-5.25,6.88-1.06,7.48-2.86a3.14,3.14,0,0,0,0-2.63c0-.07,2.63-.86,2.37-2.05s-.65-1.07-2-1.61S74.09,4.47,73.89,3,74,.54,72.88.5s-1.2,2-1.45,2.88-.07,0-.07,0-.93-1.48-1.64-.66.94,2.61.73,3.29a5.68,5.68,0,0,1-4,2.77c-2,.16-11.63-.81-13.65-.1s-5.4,7.4-5.4,7.4-2.89-3.76-3.26-5.78S43.53,8,43,7.8s-.72-1.06-1-1a1.65,1.65,0,0,0-.55.15s-.6-.67-1-.53-.39.65-.15,1.72,3,8.2,3,8.2a2.8,2.8,0,0,1,.31,2.38,14.37,14.37,0,0,1-1.29,3.12c-.45.46-2.55,3.48-3.39,3.06s-.6-1.3-.13-2a1.5,1.5,0,0,0,.4-1.55c-.14-.76,0-4.05-2.47-4.9A7.62,7.62,0,0,0,34.93,16.12Z"/><path class="cls-2" d="M38.69,18.36a7.8,7.8,0,0,0,.55,3.21c.2.34-.05.58-.28.82s-.46.35-.42.68c.13,1.31-.44,1.14-1.27.65a3.91,3.91,0,0,0-1.62-.63c-1.29-.06-1.34-1.21-1.88-1.93a.59.59,0,0,1,.06-.54c.17-.22.34,0,.49.12s.66.17.78,0C35.91,19.46,37.65,19.77,38.69,18.36Z"/><path class="cls-3" d="M50.75,17.56l-2,.38c-.07.62.55.26.77.57-.5.18-1.11-.05-1.49.49l.82.46c-1,.4-2.23.29-3,1.52,0-.81-.84-1.15-.36-1.74.64-.78,1-1.89,2.17-2.14.46-.09.9-.27,1.35-.39s.5,0,.67.46S50.36,17.21,50.75,17.56Z"/><path class="cls-4" d="M41,6.55c.69.92.9,2,1.91,2.63l.2-1.47a1.6,1.6,0,0,1,.71,1.81c-.08.52-.79.5-1.32.5s-.55-.34-.75-.62A5.08,5.08,0,0,1,41,6.55Z"/></g><g id="circle"><ellipse class="cls-5" cx="53.58" cy="79.68" rx="53.58" ry="13.4"/></g></g></svg>