<svg id="Logo" xmlns="http://www.w3.org/2000/svg" viewBox="0 0 450 276"><defs><style>.cls-1{fill:#221f1f}.cls-2{fill:#fff}</style></defs><title>nwfc-logo</title><path class="cls-1" d="M376 .32V0H0v230.72L450 276z"/><path class="cls-2" d="M78.6 153.74c-7.1 0-12-5.91-12-13v-.12c0-7.09 5-12.89 12-12.89 4.14 0 7.39 1.77 10.59 4.67l5.8-6.68c-3.84-3.78-8.52-6.39-16.32-6.39-12.71 0-21.59 9.64-21.59 21.41v.12a20.9 20.9 0 0 0 20.5 21.29h.73c8 0 12.71-2.84 17-7.39l-5.8-5.85c-3.28 2.93-6.18 4.83-10.91 4.83zm35.47-9.11h19.51v-8.1h-19.51v-8.4h22.17V120H105v41.4h31.52v-8.11h-22.45v-8.69zm61.93.89L156.6 120h-8.39v41.4h9v-26.29l20 26.32H185V120h-9v25.49zm18.25-17.09h12.59v33h9.11v-33h12.6V120h-34.3v8.4zm52.6 16.2h19.52v-8.1h-19.52v-8.4H269V120h-31.2v41.4h31.52v-8.11h-22.47v-8.69zm68.68-10.82v-.12c0-8.52-5.85-13.66-15.61-13.66H281v41.4h9.11v-13.25h7.16l8.87 13.25h10.65l-10.11-14.78c5.24-1.96 8.85-6.16 8.85-12.84zm-9.22.48c0 3.49-2.54 5.85-7 5.85h-9.21v-11.89h9c4.44 0 7.16 2 7.16 5.91v.12zM61.66 75l26.48 33.63h3.69v-41h-4.51v32.87L61.48 67.6h-4.34v41h4.52V75zm100.58-7.4h-4.86l-11.72 34.16-11.25-34.27h-3.81l-11.25 34.27-11.72-34.16h-5l14.65 41.31h3.87l11.3-33.28 11.25 33.28h3.93l14.61-41.31zm19.41 25.14h19.57v-8.2h-19.57v-8.73h22.21V67.6h-31.23v41h9V92.74zm32.47-25.14h9v41h-9v-41zm51.7 32.82h-20.45V67.6h-9v41h29.47v-8.2zM306.2 67.6l-10.78 17.35-10.78-17.35h-9.72v41h8.84V82l11.43 17.34h.23L307 81.84v26.78h9v-41h-9.8z" id="Text"/></svg>